<?xml version="1.0" standalone="no"?><!DOCTYPE svg PUBLIC "-//W3C//DTD SVG 1.1//EN" "http://www.w3.org/Graphics/SVG/1.1/DTD/svg11.dtd"><svg t="1545297398338" class="icon" style="" viewBox="0 0 1024 1024" version="1.1" xmlns="http://www.w3.org/2000/svg" p-id="3544" xmlns:xlink="http://www.w3.org/1999/xlink" width="200" height="200"><defs><style type="text/css"></style></defs><path d="M910.848 885.76a51.2 51.2 0 0 1-72.192-6.656L716.8 735.232a211.456 211.456 0 1 1 69.632-76.288l130.048 153.6a51.2 51.2 0 0 1-5.632 73.216zM607.232 460.8a102.4 102.4 0 1 0 102.4 102.4 102.4 102.4 0 0 0-102.4-102.4z m102.4-256h-512v614.4h460.8v102.4h-460.8a102.4 102.4 0 0 1-102.4-102.4V204.8a102.4 102.4 0 0 1 102.4-102.4h512a102.4 102.4 0 0 1 102.4 102.4v102.4h-102.4z" fill="" p-id="3545"></path></svg>